<?xml version="1.0" encoding="UTF-8" standalone="no"?>
<!DOCTYPE svg PUBLIC "-//W3C//DTD SVG 1.1//EN" "http://www.w3.org/Graphics/SVG/1.1/DTD/svg11.dtd">
<svg width="100%" height="100%" viewBox="0 0 1236 291" version="1.1" xmlns="http://www.w3.org/2000/svg" xmlns:xlink="http://www.w3.org/1999/xlink" xml:space="preserve" xmlns:serif="http://www.serif.com/" style="fill-rule:evenodd;clip-rule:evenodd;stroke-linejoin:round;stroke-miterlimit:1.41421;">
    <g transform="matrix(1,0,0,1,-3103.99,-1588.37)">
        <g id="Beast-Black" serif:id="Beast Black" transform="matrix(1,0,0,1,491.413,408.538)">
            <rect x="2612.58" y="1179.83" width="1235.74" height="290.902" style="fill:none;"/>
            <clipPath id="_clip1">
                <rect x="2612.58" y="1179.83" width="1235.74" height="290.902"/>
            </clipPath>
            <g clip-path="url(#_clip1)">
                <g transform="matrix(0.652069,0,0,0.652069,982.09,461.938)">
                    <g transform="matrix(1.70237,0,0,1.88507,2419.46,1112.03)">
                        <text x="240.876px" y="174.112px" style="font-family:'GreatLakesNF';font-size:144px;">B<tspan x="327.564px 387.9px 486.108px 565.452px " y="174.112px 174.112px 174.112px 174.112px ">EAST</tspan></text>
                    </g>
                    <g transform="matrix(1.70237,0,0,1.88507,3105.96,1112.03)">
                        <text x="240.876px" y="174.112px" style="font-family:'GreatLakesNF';font-size:144px;">N<tspan x="329.868px 418.716px 507.564px " y="174.112px 174.112px 174.112px ">ODE</tspan></text>
                    </g>
                </g>
                <g transform="matrix(1,0,0,1,2554.87,-443.254)">
                    <g transform="matrix(1,0,0,1,-69.021,0)">
                        <rect x="1161.19" y="1623.92" width="57.285" height="290.902" style="fill:rgb(255,0,0);"/>
                    </g>
                    <g transform="matrix(1,0,0,0.790363,3.26441,370.926)">
                        <rect x="1161.19" y="1623.92" width="57.285" height="290.902" style="fill:rgb(255,0,0);"/>
                    </g>
                    <g transform="matrix(1,0,0,0.509796,75.5498,861.237)">
                        <rect x="1161.19" y="1623.92" width="57.285" height="290.902" style="fill:rgb(255,0,0);"/>
                    </g>
                </g>
                <g transform="matrix(1,0,0,1,-3.89255,0.831632)">
                    <g transform="matrix(-1,1.22465e-16,-1.22465e-16,-1,3980.1,3094.65)">
                        <rect x="1161.19" y="1623.92" width="57.285" height="290.902" style="fill:rgb(255,0,0);"/>
                    </g>
                    <g transform="matrix(-1,1.22465e-16,-9.67915e-17,-0.790363,3907.82,2723.73)">
                        <rect x="1161.19" y="1623.92" width="57.285" height="290.902" style="fill:rgb(255,0,0);"/>
                    </g>
                    <g transform="matrix(-1,1.22465e-16,-6.24319e-17,-0.509796,3835.53,2233.41)">
                        <rect x="1161.19" y="1623.92" width="57.285" height="290.902" style="fill:rgb(255,0,0);"/>
                    </g>
                </g>
            </g>
        </g>
    </g>
</svg>
